<!-- <?xml version="1.0" encoding="utf-8"?> -->
<!-- Generator: Adobe Illustrator 23.0.1, SVG Export Plug-In . SVG Version: 6.00 Build 0)  -->
<svg version="1.1" id="Layer_1" xmlns="http://www.w3.org/2000/svg" xmlns:xlink="http://www.w3.org/1999/xlink" x="0px" y="0px"
	 viewBox="0 0 1000 1000" style="enable-background:new 0 0 1000 1000;" xml:space="preserve">
<style type="text/css">
	.st0{fill:none;}
</style>
<g>
	<g>
		<path d="M194.02,819.38v1.15h-31.17v-1.15h2.89c7.36,0,6.93-1.88,3.9-8.8l-9.96-23.67h-44.59l-9.24,23.67
			c-2.74,7.22-1.16,8.8,6.2,8.8h2.89v1.15H90.55v-1.15H93c6.49,0,8.8-2.74,11.26-8.8l35.21-91.06h1.73l38.53,91.06
			c3.17,7.07,5.34,8.8,12.7,8.8H194.02z M158.96,785.18l-22.66-53.11l-20.49,53.11H158.96z"/>
		<path d="M229.25,819.38v1.15h-32.33v-1.15h2.89c7.22,0,8.66-1.59,8.66-8.8v-81.1c0-7.22-1.44-8.66-8.66-8.66h-2.89v-1.3h20.78
			v91.06c0,7.22,1.3,8.8,8.66,8.8H229.25z"/>
		<path d="M291.16,773.49v1.59h-51.81v-1.59H291.16z"/>
		<path d="M441.11,729.62v80.96c0,7.22,1.3,8.8,8.66,8.8h2.89v1.15h-32.33v-1.15h2.89c7.36,0,8.66-1.59,8.66-8.8V722.4l-40.26,70.42
			h-1.73l-41.27-65.09v82.84c0,7.22,5.2,8.8,12.56,8.8h2.89v1.15h-32.47v-1.15h2.89c7.36,0,12.55-1.59,12.55-8.8v-80.96
			c0-7.36-5.2-8.8-12.55-8.8h-2.89v-1.3h23.38l40.26,63.93l36.66-63.93h20.78v1.3h-2.89C442.41,720.82,441.11,722.26,441.11,729.62z
			"/>
		<path d="M534.05,813.03c-2.31,3.46-7.22,8.37-13.71,8.37c-7.07,0-11.69-4.04-11.69-12.55c0-1.15,0-9.67,0-10.97
			c-1.44,7.79-8.51,22.66-24.39,23.52c-11.4,0.58-24.53-4.62-24.97-17.17c-0.58-15.15,12.99-19.05,29.29-21.79
			c13.71-2.31,18.33-7.94,20.06-11.11c0-17.03-7.65-20.49-17.03-20.49c-7.65,0-11.11,6.21-15.73,10.68
			c-3.61,3.46-6.49,3.46-8.23,1.3c-1.44-1.73-0.58-4.47,2.02-6.2c6.06-3.75,14.57-6.93,22.22-6.93c16.45,0,25.98,8.08,25.98,26.55
			v33.48c0,7.36,1.59,9.67,4.47,9.96c3.46,0.43,8.23-2.89,10.97-7.22L534.05,813.03z M508.66,773.06
			c-3.03,3.46-6.35,7.79-21.79,10.82c-8.8,1.88-19.91,6.35-19.19,19.77c0.72,11.4,10.1,16.45,20.49,15.44
			c11.83-1.16,20.49-15.3,20.49-28.14C508.66,784.46,508.66,777.67,508.66,773.06z"/>
		<path d="M617.91,850.55v1.15h-37.52v-1.15h7.94c7.36,0,8.66-1.44,8.66-8.8v-37.23c-3.03,9.38-13.71,16.6-24.24,16.88
			c-22.37,0.58-37.23-14.86-37.23-35.79c0-20.93,14.86-36.51,37.23-35.93c10.68,0.29,21.65,8.08,24.53,17.61l7.36-16.6h1.73v91.06
			c0,7.36,1.3,8.8,8.66,8.8H617.91z M596.98,772.91c0-10.68-10.53-21.36-24.24-21.79c-16.45-0.29-27.85,13.85-27.85,34.49
			c0,20.64,11.4,34.92,27.85,34.49c13.71-0.43,24.24-11.11,24.24-21.79V772.91z"/>
		<path d="M699.02,785.61c0,20.93-15.01,36.37-37.23,35.79c-10.82-0.29-21.79-7.79-24.53-17.46l-7.36,16.6h-1.88v-91.06
			c0-7.22-1.3-8.66-8.66-8.66h-2.89v-1.3h20.93v47.19c3.03-9.38,13.85-16.74,24.39-17.03C684.01,749.1,699.02,764.69,699.02,785.61z
			 M689.64,785.61c0-20.64-11.54-34.78-27.85-34.49c-13.85,0.43-24.39,11.11-24.39,21.79v25.4c0,10.68,10.53,21.36,24.39,21.79
			C678.09,820.53,689.64,806.25,689.64,785.61z"/>
		<path d="M785.9,785.61c0,20.93-15.44,35.79-37.67,35.79c-22.37,0-37.67-14.86-37.67-35.79c0-20.93,15.3-35.93,37.67-35.93
			C770.46,749.68,785.9,764.69,785.9,785.61z M776.67,785.61c0-20.64-10.53-34.49-28.43-34.49c-17.89,0-28.43,13.85-28.43,34.49
			c0,20.64,10.53,34.49,28.43,34.49C766.13,820.1,776.67,806.25,776.67,785.61z"/>
		<path d="M872.79,785.61c0,20.93-15.44,35.79-37.67,35.79c-22.37,0-37.67-14.86-37.67-35.79c0-20.93,15.3-35.93,37.67-35.93
			C857.35,749.68,872.79,764.69,872.79,785.61z M863.55,785.61c0-20.64-10.53-34.49-28.43-34.49c-17.89,0-28.43,13.85-28.43,34.49
			c0,20.64,10.53,34.49,28.43,34.49C853.02,820.1,863.55,806.25,863.55,785.61z"/>
		<path d="M909.45,819.38v1.15h-32.33v-1.15h2.89c7.22,0,8.66-1.59,8.66-8.8v-81.1c0-7.22-1.44-8.66-8.66-8.66h-2.89v-1.3h20.78
			v91.06c0,7.22,1.3,8.8,8.66,8.8H909.45z"/>
	</g>
	<g>
		<g>
			<path d="M370.36,678.92v0.53H354.6v-0.53h0.95c5.08,0,5.5-1.38,3.7-5.71l-7.93-18.82h-36.17l-7.3,18.82
				c-1.69,4.34-1.16,5.71,3.91,5.71h0.95v0.53h-13.85v-0.53h1.16c3.91,0,5.39-1.8,7.4-6.87l25.8-66.62h0.42l28.13,66.62
				c2.01,4.76,3.49,6.87,7.4,6.87H370.36z M350.9,653.54l-18.4-43.89l-17.03,43.89H350.9z"/>
			<path d="M388.55,678.92v0.53h-16.07v-0.53h1.16c5.39,0,5.39-1.48,5.39-6.87v-59.32c0-5.39,0-6.77-5.39-6.77h-1.16v-0.53h9.52
				v66.62c0,5.39,0,6.87,5.39,6.87H388.55z"/>
			<path d="M490.06,612.72v59.32c0,5.39,0,6.87,5.39,6.87h1.16v0.53h-16.18v-0.53h1.16c5.39,0,5.5-1.48,5.5-6.87v-65.03
				l-32.78,52.03h-0.63l-31.3-49.38v62.39c0,5.39,0,6.87,5.39,6.87h1.16v0.53h-13.96v-0.53h1.16c5.39,0,5.39-1.48,5.39-6.87v-59.32
				c0-5.39,0-6.77-5.39-6.77h-1.16v-0.53h7.93l32.25,50.34l31.94-50.34h9.52v0.53h-1.16C490.06,605.96,490.06,607.33,490.06,612.72z
				"/>
			<path d="M555.31,674.59c-1.8,2.54-5.39,5.5-9.31,5.5c-4.12,0-5.81-2.54-5.81-8.35c0-0.85,0-8.35,0-9.41
				c-1.06,5.92-8.25,17.24-19.88,17.77c-8.46,0.42-17.87-3.7-18.29-12.58c-0.42-10.79,9.52-13.96,21.47-16.07
				c9.84-1.69,15.54-5.82,16.71-8.14c0-12.48-8.25-15.23-15.23-15.23c-5.6,0-9.41,3.6-12.9,6.87c-1.69,1.59-3.17,1.9-3.91,0.74
				c-0.63-0.95,0.11-2.12,1.48-2.96c4.34-2.96,10.58-5.18,15.33-5.18c12.16,0,18.19,5.92,18.19,19.46v25.38
				c0,5.39,1.37,6.45,3.6,6.66c2.43,0.21,5.92-1.59,8.25-4.76L555.31,674.59z M540.19,644.55c-2.12,2.64-6.66,5.6-17.87,7.83
				c-6.56,1.27-17.55,4.76-17.02,14.7c0.53,8.99,8.99,13.01,17.87,11.63c9.41-1.48,17.03-11.42,17.03-20.83
				C540.19,653.12,540.19,647.94,540.19,644.55z"/>
			<path d="M598.03,665.7c-0.42,8.46-7.4,14.38-18.4,14.38c-11,0-16.29-5.82-19.03-5.39c-1.59,0.32-1.69,2.96-1.69,5.18
				c0,0.95,0,1.27,0,1.27h-0.42v-19.99h0.42c0,0,0,1.9,0,3.07c0,11.1,12.37,15.02,19.98,15.12c9.2,0.11,15.86-3.49,16.92-10.68
				c1.27-8.14-5.18-11.1-17.77-14.49c-13.96-3.81-17.45-8.99-15.97-16.07c1.69-7.83,9.41-10.57,15.44-10.57
				c9.31-0.21,14.38,5.18,16.39,5.18c1.37,0,1.48-2.01,1.48-3.49c0-1.27,0-1.69,0-1.69h0.42v18.93h-0.42c0,0,0-0.32,0-2.01
				c0-9.94-5.92-16.07-17.77-16.29c-5.71-0.11-13.11,2.64-13.64,10.05c-0.42,6.66,4.23,9.73,15.44,13.11
				C593.06,655.34,598.34,657.98,598.03,665.7z"/>
			<path d="M603.63,626.69h9.52v44.99c0,20.18-8.25,24.13-13.01,25.39c-3.07,0.77-8.46,0.58-11.84,0c-2.64-0.39-3.7-1.26-3.28-2.32
				c0.42-0.87,1.48-0.97,3.59-0.29c2.43,0.77,6.56,2.8,11.32,2.03c5.5-0.97,10.26-5.6,10.26-24.81v-38.33c0-4.92,0-6.18-5.39-6.18
				h-1.16V626.69z M608.18,612.78c0-1.45,1.27-2.7,2.85-2.7c1.69,0,2.96,1.26,2.96,2.7c0,1.45-1.27,2.7-2.96,2.7
				C609.44,615.49,608.18,614.23,608.18,612.78z"/>
			<path d="M639.69,678.92v0.53h-16.18v-0.53h1.16c5.39,0,5.39-1.48,5.39-6.87v-36.48c0-5.39,0-6.77-5.39-6.77h-1.16v-0.53h9.62
				v43.78c0,5.39,0,6.87,5.39,6.87H639.69z M628.06,613.04c0-1.59,1.27-2.96,2.96-2.96c1.59,0,2.86,1.38,2.86,2.96
				c0,1.59-1.27,2.96-2.86,2.96C629.32,616,628.06,614.63,628.06,613.04z"/>
			<path d="M701.13,678.92v0.53h-9.52v-14.17c-2.11,7.3-10.68,14.38-19.67,14.8c-16.29,0.85-27.5-10.47-27.5-26.33
				c0-15.76,11.21-26.97,27.5-26.22c8.99,0.42,17.55,7.51,19.67,14.7v-29.5c0-5.39-0.11-6.77-5.5-6.77h-1.16v-0.53h9.62v66.62
				c0,5.39,0,6.87,5.39,6.87H701.13z M691.61,661.26v-14.91c0-8.04-8.46-17.34-19.67-18.08c-13.85-0.85-24.11,9.94-24.11,25.48
				c0,15.65,10.26,26.33,24.11,25.49C683.15,678.61,691.61,669.19,691.61,661.26z"/>
		</g>
		<g>
			<g>
				<path d="M851.45,644.72l-33.46,0.67l-33.46,0.5c-11.15,0.14-22.3,0.58-33.46,0.33c-5.58-0.12-11.15-0.25-16.73-0.49
					c-5.58-0.23-11.15-0.53-16.73-1v-0.33c5.58-0.48,11.15-0.77,16.73-1c5.58-0.24,11.15-0.38,16.73-0.49
					c11.15-0.24,22.3,0.19,33.46,0.33l33.46,0.5l33.46,0.67V644.72z"/>
			</g>
			<g>
				<path d="M148.55,644.39l33.46-0.67l33.46-0.5c11.15-0.14,22.3-0.58,33.46-0.33c5.58,0.12,11.15,0.25,16.73,0.49
					c5.58,0.23,11.15,0.53,16.73,1v0.33c-5.58,0.48-11.15,0.77-16.73,1c-5.58,0.24-11.15,0.38-16.73,0.49
					c-11.15,0.24-22.3-0.19-33.46-0.33l-33.46-0.5l-33.46-0.67V644.39z"/>
			</g>
		</g>
	</g>
	<g>
		<path class="st0" d="M444.34,229.59c-17.51,34.02-26.73,71.26-26.73,109.74v191.29h53.64V339.33
			C471.25,301.66,461.96,263.9,444.34,229.59z"/>
		<path class="st0" d="M597.17,339.33v191.29h96.39V339.33c0-68.5-29.21-133.06-82.4-182.51c-18.56,17.27-34.32,36.65-47.02,57.67
			c3.21,5.74,6.22,11.58,9,17.54C589.09,266.22,597.17,302.32,597.17,339.33z"/>
		<path class="st0" d="M547.13,214.36c-12.57-20.73-28.34-40.08-47.12-57.54c-18.77,17.45-34.54,36.79-47.11,57.52
			c0.14,0.25,0.28,0.49,0.42,0.74c21.39,38.41,32.7,81.38,32.7,124.26v191.29H514V339.33C514,296.12,525.47,253.01,547.13,214.36z"
			/>
		<path class="st0" d="M426.87,232.04c2.79-5.97,5.8-11.83,9.02-17.58c-12.69-21.02-28.46-40.36-47.04-57.64
			c-53.19,49.45-82.4,114.02-82.4,182.51v191.29h96.39V339.33C402.84,302.32,410.93,266.22,426.87,232.04z"/>
		<path d="M306.45,530.62V339.33c0-68.5,29.21-133.06,82.4-182.51c18.57,17.28,34.35,36.62,47.04,57.64
			c2.7-4.82,5.54-9.57,8.54-14.23c-13.86-21.54-30.85-41.31-50.67-58.91l-4.9-4.35l-4.9,4.35c-29.37,26.08-52.33,56.6-68.24,90.71
			c-15.94,34.18-24.03,70.28-24.03,107.29v206.06h111.16v-14.77H306.45z"/>
		<path d="M555.69,229.62c17.5,34.01,26.72,71.24,26.72,109.71v191.29h14.77V339.33c0-37.02-8.08-73.11-24.03-107.29
			c-2.78-5.96-5.79-11.81-9-17.54c-0.73,1.2-1.48,2.39-2.19,3.6C559.76,221.89,557.68,225.74,555.69,229.62z"/>
		<path d="M500.01,156.82c18.78,17.46,34.55,36.81,47.12,57.54c0.69-1.23,1.36-2.47,2.07-3.69c2.05-3.52,4.19-7,6.4-10.44
			c-13.82-21.5-30.78-41.23-50.69-58.91l-4.9-4.35l-4.9,4.35c-19.91,17.68-36.86,37.41-50.68,58.91c2.97,4.62,5.8,9.32,8.48,14.1
			C465.47,193.61,481.24,174.27,500.01,156.82z"/>
		<path d="M444.34,229.59c-1.27-2.46-2.57-4.91-3.92-7.34c-1.46-2.62-2.98-5.22-4.53-7.8c-3.22,5.75-6.23,11.61-9.02,17.58
			c-15.94,34.18-24.03,70.28-24.03,107.29v191.29h14.77V339.33C417.61,300.85,426.83,263.61,444.34,229.59z"/>
		<polygon points="514,538.01 514,530.62 486.02,530.62 486.02,545.39 521.38,545.39 521.38,538.01 		"/>
		<path d="M440.42,222.25c1.35,2.43,2.65,4.88,3.92,7.34c2.66-5.17,5.52-10.25,8.56-15.26c-2.68-4.78-5.51-9.48-8.48-14.1
			c-2.99,4.66-5.84,9.4-8.54,14.23C437.44,217.03,438.96,219.63,440.42,222.25z"/>
		<g>
			<path d="M454.72,217.67c-0.03,0.05-0.06,0.1-0.09,0.15c-5.43,9.02-5.98,20.12-1.93,29.84c12.18,29.28,18.56,60.5,18.56,91.66
				v191.29h14.77V339.33C486.02,297.41,475.18,255.42,454.72,217.67z"/>
		</g>
		<polygon points="471.25,530.62 417.61,530.62 402.84,530.62 402.84,545.39 486.02,545.39 486.02,530.62 		"/>
		<path d="M684.31,232.04c-15.91-34.11-38.87-64.63-68.24-90.71l-4.9-4.35l-4.9,4.35c-19.8,17.58-36.8,37.36-50.67,58.91
			c3,4.67,5.85,9.42,8.55,14.26c12.7-21.03,28.45-40.4,47.02-57.67c53.19,49.45,82.4,114.02,82.4,182.51v191.29h-96.39v14.77h111.16
			V339.33C708.33,302.32,700.25,266.22,684.31,232.04z"/>
		<path d="M561.96,218.1c0.71-1.21,1.46-2.4,2.19-3.6c-2.7-4.83-5.55-9.59-8.55-14.26c-2.21,3.44-4.35,6.91-6.4,10.44L561.96,218.1z
			"/>
		<polygon points="582.41,530.62 528.77,530.62 528.77,538.01 521.38,538.01 521.38,545.39 597.17,545.39 597.17,530.62 		"/>
		<path d="M561.96,218.1l-12.76-7.42c-0.71,1.22-1.38,2.46-2.07,3.69c3.04,5.01,5.9,10.1,8.56,15.26
			C557.68,225.74,559.76,221.89,561.96,218.1z"/>
		<g>
			<path d="M514,339.33v191.29h7.38h7.38V339.33c0-31.1,6.34-62.15,18.44-91.33c4.01-9.67,3.48-20.69-1.88-29.69l-0.17-0.29
				C524.79,255.72,514,297.47,514,339.33z"/>
		</g>
		<rect x="514" y="530.62" width="7.38" height="7.38"/>
		<rect x="521.38" y="530.62" width="7.38" height="7.38"/>
	</g>
</g>
</svg>
