<svg id="Layer_1" data-name="Layer 1" xmlns="http://www.w3.org/2000/svg" viewBox="0 0 2190.8 770.46"><title>sabiq</title><path d="M1176.69,1755.14q45.74,38.19,57.27,100.86H1118.69q-5-24.48-22.69-38.54t-44.31-14q-20.89,0-31.7,9t-10.8,25.58q0,18.73,19.81,28.1t62.31,18.73q46.11,10.8,75.65,22t51.15,36.38q21.62,25.23,21.61,67.72,0,34.59-18.73,61.24t-54,41.78q-35.31,15.14-83.57,15.13-81.42,0-130.4-36T893.2,1990h118.87q2.86,25.93,22,39.62t49.35,13.69q20.88,0,31.7-9.72T1125.9,2008q0-20.88-19.82-29.9T1041.6,1959q-44.67-9.35-73.48-20.17a121.29,121.29,0,0,1-49.71-34.94q-20.89-24.14-20.89-65.92,0-54,41.06-87.53t116-33.5Q1130.94,1717,1176.69,1755.14Z" transform="translate(-893.2 -1544.54)"/><path d="M1539.2,1737.81a125.36,125.36,0,0,1,48.8,56.77V1722h122v401H1588v-72.58a125.26,125.26,0,0,1-48.8,56.77q-33,20.85-78.94,20.84-49.52,0-88.63-24.79t-61.72-71.51q-22.61-46.7-22.6-109.23,0-63.23,22.6-109.59t61.72-71.15q39.11-24.79,88.63-24.79Q1506.17,1717,1539.2,1737.81Zm-103.11,113.08q-24.1,25.89-24.09,71.91t24.09,71.92q24.09,25.89,63.65,25.89,38.84,0,63.64-26.61t24.81-71.2q0-45.3-24.81-71.55T1499.74,1825Q1460.17,1825,1436.09,1850.89Z" transform="translate(-893.2 -1544.54)"/><path d="M2134.15,1741.61q39.2,24.81,61.86,71.18t22.66,109.63q0,62.55-22.66,109.28t-61.86,71.53q-39.21,24.8-88.83,24.8-46,0-79.13-20.85a121,121,0,0,1-48.19-56.79V2123H1795V1591h123v203.45a121.13,121.13,0,0,1,48.19-56.79q33.07-20.85,79.13-20.85Q2094.94,1716.81,2134.15,1741.61Zm-191.79,109.64q-24.81,26.26-24.81,71.55,0,44.61,24.81,71.2t63.64,26.61q39.55,0,63.65-25.89t24.09-71.92q0-46-24.09-71.91T2006,1825Q1967.18,1825,1942.36,1851.25Z" transform="translate(-893.2 -1544.54)"/><path d="M2291.5,1562.87q20.13-18.33,53.22-18.33t53.21,18.33q20.13,18.35,20.14,46.39,0,27.33-20.14,45.66t-53.21,18.34q-33.09,0-53.22-18.34t-20.14-45.66Q2271.36,1581.21,2291.5,1562.87ZM2406,1722v401H2283V1722Z" transform="translate(-893.2 -1544.54)"/><path d="M2771,1780.29V1722h122v593H2771V2058.8q-41.62,69.09-119.13,69.09-50.23,0-91.5-25.55t-65.66-71.61q-24.4-46-24.4-105.79t24.4-106.87q24.39-47.11,66-73.4a167.44,167.44,0,0,1,91.14-26.27Q2732.24,1718.4,2771,1780.29Zm-150.14,71Q2595,1876.78,2595,1925q0,47.46,25.53,71.56t62.2,24.09q36,0,62.21-25.53t26.25-72.28q0-46.74-26.25-71.91t-62.21-25.17Q2646.73,1825.72,2620.86,1851.25Z" transform="translate(-893.2 -1544.54)"/><path d="M3084,2000v123H2957V2000Z" transform="translate(-893.2 -1544.54)"/></svg>